<svg width="216" height="216" viewBox="0 0 216 216" fill="none" xmlns="http://www.w3.org/2000/svg">
<path d="M108 212C165.438 212 212 165.438 212 108C212 50.5624 165.438 4 108 4C50.5624 4 4 50.5624 4 108C4 165.438 50.5624 212 108 212Z" fill="white"/>
<mask id="mask0_1050_2078" style="mask-type:luminance" maskUnits="userSpaceOnUse" x="4" y="4" width="208" height="208">
<path d="M108 212C165.438 212 212 165.438 212 108C212 50.5624 165.438 4 108 4C50.5624 4 4 50.5624 4 108C4 165.438 50.5624 212 108 212Z" fill="white"/>
</mask>
<g mask="url(#mask0_1050_2078)">
<path d="M188 28H28V188H188V28Z" fill="white"/>
<path opacity="0.6" d="M130.51 188C162.261 188 188 162.261 188 130.51C188 98.7592 162.261 73.02 130.51 73.02C98.7592 73.02 73.02 98.7592 73.02 130.51C73.02 162.261 98.7592 188 130.51 188Z" fill="#FFC700"/>
<path d="M124.27 104.9L92.59 123.43C92.4584 123.513 92.3059 123.558 92.15 123.558C91.9942 123.558 91.8415 123.513 91.71 123.43C91.5648 123.348 91.4445 123.229 91.3617 123.085C91.2789 122.94 91.2368 122.776 91.24 122.61V85.5298C91.2372 85.3621 91.2793 85.1967 91.3619 85.0508C91.4446 84.9048 91.5647 84.7837 91.71 84.6998C91.8432 84.621 91.9952 84.5795 92.15 84.5798C92.3047 84.5804 92.4564 84.6219 92.59 84.6998L124.27 103.23C124.411 103.32 124.527 103.444 124.607 103.591C124.687 103.738 124.73 103.903 124.73 104.07C124.728 104.235 124.685 104.398 124.605 104.543C124.524 104.688 124.409 104.81 124.27 104.9ZM94.47 81.4998C93.7644 81.0877 92.9621 80.8706 92.145 80.8706C91.3279 80.8706 90.5255 81.0877 89.8199 81.4998C89.123 81.9103 88.5447 82.4947 88.1415 83.1959C87.7383 83.8971 87.5242 84.691 87.52 85.4998V122.58C87.5252 123.388 87.7397 124.182 88.1428 124.883C88.5459 125.584 89.1237 126.169 89.8199 126.58C90.5269 126.993 91.3312 127.21 92.15 127.21C92.9659 127.212 93.7671 126.994 94.47 126.58L126.15 108.04C126.851 107.626 127.432 107.037 127.835 106.33C128.238 105.623 128.451 104.824 128.451 104.01C128.451 103.196 128.238 102.396 127.835 101.69C127.432 100.983 126.851 100.394 126.15 99.9798L94.47 81.4998ZM137.75 142.12C137.75 142.613 137.554 143.086 137.205 143.435C136.856 143.784 136.383 143.98 135.89 143.98H61.47C59.4985 143.98 57.6076 143.197 56.2126 141.804C54.8177 140.411 54.0327 138.521 54.03 136.55V65.9998C54.0327 64.0283 54.8177 62.1385 56.2126 60.7454C57.6076 59.3523 59.4985 58.5698 61.47 58.5698H154.47C156.441 58.5698 158.332 59.3523 159.727 60.7454C161.122 62.1385 161.907 64.0283 161.91 65.9998V119.83C161.91 120.323 161.714 120.796 161.365 121.145C161.016 121.494 160.543 121.69 160.05 121.69C159.557 121.69 159.084 121.494 158.735 121.145C158.386 120.796 158.19 120.323 158.19 119.83V71.5898H65.1899C64.6966 71.5898 64.2236 71.3939 63.8748 71.045C63.5259 70.6962 63.33 70.2231 63.33 69.7298C63.33 69.2365 63.5259 68.7634 63.8748 68.4146C64.2236 68.0658 64.6966 67.8698 65.1899 67.8698H158.19V65.9998C158.187 65.014 157.795 64.0693 157.098 63.3723C156.4 62.6752 155.456 62.2825 154.47 62.2798H61.47C60.4842 62.2825 59.5396 62.6752 58.8425 63.3723C58.1455 64.0693 57.7526 65.014 57.75 65.9998V136.53C57.7526 137.516 58.1455 138.46 58.8425 139.157C59.5396 139.854 60.4842 140.247 61.47 140.25H135.89C136.135 140.248 136.379 140.296 136.606 140.39C136.833 140.483 137.039 140.621 137.212 140.795C137.385 140.969 137.522 141.176 137.614 141.403C137.706 141.631 137.753 141.874 137.75 142.12ZM158.75 135.81C158.313 136.06 157.992 136.474 157.86 136.96C157.793 137.201 157.776 137.453 157.81 137.701C157.844 137.948 157.93 138.186 158.06 138.4L163.97 148.07L158.05 150.87L151.93 140.87C151.67 140.445 151.254 140.139 150.77 140.02C150.63 140.01 150.49 140.01 150.35 140.02C149.996 140.02 149.649 140.121 149.35 140.31L145.22 142.9V123L163.71 133.08L158.75 135.81ZM169.41 133.03C169.405 132.695 169.309 132.367 169.133 132.082C168.957 131.797 168.707 131.565 168.41 131.41L144.23 118.22C143.947 118.063 143.627 117.983 143.304 117.988C142.98 117.992 142.663 118.081 142.384 118.246C142.105 118.411 141.874 118.645 141.714 118.927C141.554 119.208 141.47 119.526 141.47 119.85V146.23C141.473 146.567 141.568 146.896 141.745 147.183C141.921 147.47 142.171 147.704 142.47 147.86C142.762 148.018 143.091 148.095 143.423 148.085C143.755 148.074 144.078 147.976 144.36 147.8L149.74 144.41L155.74 154.22C155.905 154.493 156.138 154.719 156.417 154.875C156.696 155.032 157.01 155.112 157.33 155.11C157.604 155.115 157.875 155.053 158.12 154.93L167.43 150.54C167.669 150.43 167.882 150.271 168.054 150.073C168.226 149.874 168.355 149.642 168.43 149.39C168.504 149.14 168.525 148.878 168.492 148.62C168.46 148.362 168.374 148.113 168.24 147.89L162.24 138.12L168.45 134.66C168.75 134.506 169.002 134.272 169.178 133.985C169.355 133.697 169.449 133.367 169.45 133.03" fill="black"/>
<path d="M169.41 133.03C169.405 132.695 169.309 132.367 169.133 132.082C168.957 131.797 168.707 131.565 168.41 131.41L144.23 118.22C143.947 118.063 143.627 117.983 143.304 117.988C142.98 117.992 142.663 118.081 142.384 118.246C142.105 118.411 141.874 118.645 141.714 118.927C141.554 119.208 141.47 119.526 141.47 119.85V146.23C141.473 146.567 141.568 146.896 141.745 147.183C141.921 147.47 142.171 147.704 142.47 147.86C142.762 148.018 143.091 148.095 143.423 148.085C143.755 148.074 144.078 147.976 144.36 147.8L149.74 144.41L155.74 154.22C155.905 154.493 156.138 154.719 156.417 154.875C156.696 155.032 157.01 155.112 157.33 155.11C157.604 155.115 157.875 155.053 158.12 154.93L167.43 150.54C167.669 150.43 167.882 150.271 168.054 150.073C168.226 149.874 168.355 149.642 168.43 149.39C168.504 149.14 168.525 148.878 168.492 148.62C168.46 148.362 168.374 148.113 168.24 147.89L162.24 138.12L168.45 134.66C168.75 134.506 169.002 134.272 169.178 133.985C169.355 133.697 169.449 133.367 169.45 133.03M124.27 104.9L92.59 123.43C92.4584 123.513 92.3059 123.558 92.15 123.558C91.9942 123.558 91.8415 123.513 91.71 123.43C91.5648 123.348 91.4445 123.229 91.3617 123.085C91.2789 122.94 91.2368 122.776 91.24 122.61V85.5298C91.2372 85.3621 91.2793 85.1967 91.3619 85.0508C91.4446 84.9048 91.5647 84.7837 91.71 84.6998C91.8432 84.621 91.9952 84.5795 92.15 84.5798C92.3047 84.5804 92.4564 84.6219 92.59 84.6998L124.27 103.23C124.411 103.32 124.527 103.444 124.607 103.591C124.687 103.738 124.73 103.903 124.73 104.07C124.728 104.235 124.685 104.398 124.605 104.543C124.524 104.688 124.409 104.81 124.27 104.9ZM94.47 81.4998C93.7644 81.0877 92.9621 80.8706 92.145 80.8706C91.328 80.8706 90.5255 81.0877 89.8199 81.4998C89.123 81.9103 88.5447 82.4947 88.1415 83.1959C87.7383 83.8971 87.5242 84.691 87.52 85.4998V122.58C87.5252 123.388 87.7397 124.182 88.1428 124.883C88.5459 125.584 89.1237 126.169 89.8199 126.58C90.5269 126.993 91.3312 127.21 92.15 127.21C92.9659 127.212 93.7671 126.994 94.47 126.58L126.15 108.04C126.851 107.626 127.432 107.037 127.835 106.33C128.238 105.623 128.451 104.824 128.451 104.01C128.451 103.196 128.238 102.396 127.835 101.69C127.432 100.983 126.851 100.394 126.15 99.9798L94.47 81.4998ZM137.75 142.12C137.75 142.613 137.554 143.086 137.205 143.435C136.856 143.784 136.383 143.98 135.89 143.98H61.47C59.4985 143.98 57.6076 143.197 56.2126 141.804C54.8177 140.411 54.0327 138.521 54.03 136.55V65.9998C54.0327 64.0283 54.8177 62.1385 56.2126 60.7454C57.6076 59.3523 59.4985 58.5698 61.47 58.5698H154.47C156.441 58.5698 158.332 59.3523 159.727 60.7454C161.122 62.1385 161.907 64.0283 161.91 65.9998V119.83C161.91 120.323 161.714 120.796 161.365 121.145C161.016 121.494 160.543 121.69 160.05 121.69C159.557 121.69 159.084 121.494 158.735 121.145C158.386 120.796 158.19 120.323 158.19 119.83V71.5898H65.1899C64.6966 71.5898 64.2236 71.3939 63.8748 71.045C63.5259 70.6962 63.33 70.2231 63.33 69.7298C63.33 69.2365 63.5259 68.7634 63.8748 68.4146C64.2236 68.0658 64.6966 67.8698 65.1899 67.8698H158.19V65.9998C158.187 65.014 157.795 64.0693 157.098 63.3723C156.4 62.6752 155.456 62.2825 154.47 62.2798H61.47C60.4842 62.2825 59.5396 62.6752 58.8425 63.3723C58.1455 64.0693 57.7526 65.014 57.75 65.9998V136.53C57.7526 137.516 58.1455 138.46 58.8425 139.157C59.5396 139.854 60.4842 140.247 61.47 140.25H135.89C136.135 140.248 136.379 140.296 136.606 140.39C136.833 140.483 137.039 140.621 137.212 140.795C137.385 140.969 137.522 141.176 137.614 141.403C137.706 141.631 137.753 141.874 137.75 142.12ZM158.75 135.81C158.313 136.06 157.992 136.474 157.86 136.96C157.793 137.201 157.776 137.453 157.81 137.701C157.844 137.948 157.93 138.186 158.06 138.4L163.97 148.07L158.05 150.87L151.93 140.87C151.67 140.445 151.254 140.139 150.77 140.02C150.63 140.01 150.49 140.01 150.35 140.02C149.996 140.02 149.649 140.121 149.35 140.31L145.22 142.9V123L163.71 133.08L158.75 135.81Z" stroke="black" stroke-width="2" stroke-miterlimit="10"/>
</g>
<path d="M108 212C165.438 212 212 165.438 212 108C212 50.5624 165.438 4 108 4C50.5624 4 4 50.5624 4 108C4 165.438 50.5624 212 108 212Z" stroke="white" stroke-width="8"/>
<path d="M108 212C165.438 212 212 165.438 212 108C212 50.5624 165.438 4 108 4C50.5624 4 4 50.5624 4 108C4 165.438 50.5624 212 108 212Z" stroke="black" stroke-opacity="0.2" stroke-width="8"/>
</svg>
