<svg width="217" height="216" viewBox="0 0 217 216" fill="none" xmlns="http://www.w3.org/2000/svg">
<path d="M108.5 212C165.938 212 212.5 165.438 212.5 108C212.5 50.5624 165.938 4 108.5 4C51.0624 4 4.5 50.5624 4.5 108C4.5 165.438 51.0624 212 108.5 212Z" fill="white"/>
<mask id="mask0_1050_2099" style="mask-type:luminance" maskUnits="userSpaceOnUse" x="4" y="4" width="209" height="208">
<path d="M108.5 212C165.938 212 212.5 165.438 212.5 108C212.5 50.5624 165.938 4 108.5 4C51.0624 4 4.5 50.5624 4.5 108C4.5 165.438 51.0624 212 108.5 212Z" fill="white"/>
</mask>
<g mask="url(#mask0_1050_2099)">
<path d="M188.5 28H28.5V188H188.5V28Z" fill="white"/>
<path opacity="0.6" d="M131.01 188C162.761 188 188.5 162.261 188.5 130.51C188.5 98.7592 162.761 73.02 131.01 73.02C99.2592 73.02 73.52 98.7592 73.52 130.51C73.52 162.261 99.2592 188 131.01 188Z" fill="#FFC700"/>
<path d="M67.78 57.8799H149.21C152.914 57.8799 156.468 59.348 159.092 61.9627C161.716 64.5774 163.197 68.1255 163.21 71.8299V136.2C163.191 139.901 161.708 143.444 159.085 146.054C156.461 148.665 152.911 150.13 149.21 150.13H123.45C122.468 150.119 121.496 150.335 120.61 150.76C119.73 151.2 118.967 151.841 118.38 152.63L117.63 153.63C116.564 155.044 115.184 156.192 113.599 156.982C112.013 157.772 110.266 158.183 108.495 158.183C106.724 158.183 104.977 157.772 103.391 156.982C101.806 156.192 100.426 155.044 99.36 153.63L98.62 152.63C98.0366 151.835 97.2702 151.193 96.3859 150.758C95.5015 150.323 94.5254 150.107 93.54 150.13H67.78C64.0791 150.13 60.5287 148.665 57.9052 146.054C55.2816 143.444 53.7985 139.901 53.78 136.2V71.8299C53.7933 68.1255 55.2741 64.5774 57.8982 61.9627C60.5223 59.348 64.0756 57.8799 67.78 57.8799ZM149.21 62.9999H67.78C65.4405 63.0104 63.1996 63.9437 61.5443 65.5971C59.889 67.2505 58.9531 69.4903 58.9399 71.8299V136.2C58.9505 138.539 59.8859 140.78 61.542 142.432C63.1981 144.084 65.4406 145.015 67.78 145.02H93.54C95.3093 145.001 97.0582 145.399 98.6445 146.183C100.231 146.966 101.61 148.113 102.67 149.53L103.42 150.53C104.009 151.317 104.772 151.957 105.65 152.4C106.54 152.821 107.515 153.034 108.5 153.02C109.483 153.046 110.459 152.833 111.342 152.399C112.225 151.966 112.989 151.324 113.57 150.53L114.32 149.53C115.385 148.127 116.752 146.982 118.32 146.18C119.912 145.408 121.66 145.011 123.43 145.02H149.19C151.528 145.012 153.768 144.081 155.422 142.428C157.075 140.776 158.009 138.538 158.02 136.2V71.8299C158.007 69.4921 157.072 67.2537 155.419 65.6006C153.766 63.9475 151.528 63.013 149.19 62.9999H149.21Z" fill="black" stroke="black" stroke-miterlimit="10"/>
<path fill-rule="evenodd" clip-rule="evenodd" d="M87.72 100.7C83.5125 100.806 79.5037 102.512 76.51 105.47C74.9835 106.982 73.7715 108.78 72.9442 110.763C72.1169 112.745 71.6906 114.872 71.6899 117.02V127.48C71.6952 128.128 71.9572 128.748 72.4182 129.203C72.8793 129.659 73.502 129.913 74.15 129.91H123.22C123.868 129.913 124.491 129.659 124.952 129.203C125.413 128.748 125.675 128.128 125.68 127.48V117C125.677 114.852 125.25 112.726 124.423 110.744C123.596 108.762 122.385 106.963 120.86 105.45C117.866 102.492 113.857 100.786 109.65 100.68C112.072 98.0105 113.412 94.5346 113.41 90.9302C113.31 87.0913 111.715 83.4433 108.964 80.7635C106.214 78.0837 102.525 76.584 98.6851 76.584C94.8449 76.584 91.1564 78.0837 88.4059 80.7635C85.6553 83.4433 84.06 87.0913 83.96 90.9302C83.9529 94.5415 85.2937 98.0254 87.72 100.7ZM120.72 117.02V125.02H76.6V117.02C76.6008 115.514 76.8999 114.022 77.48 112.632C78.0601 111.242 78.9098 109.98 79.98 108.92C82.1536 106.767 85.0901 105.559 88.15 105.56H109.22C112.28 105.559 115.216 106.767 117.39 108.92C118.458 109.978 119.306 111.236 119.886 112.623C120.466 114.01 120.767 115.497 120.77 117L120.72 117.02ZM130.53 95.8202H123.17C122.837 95.7989 122.503 95.846 122.189 95.9587C121.875 96.0714 121.588 96.2473 121.345 96.4755C121.101 96.7037 120.907 96.9794 120.775 97.2855C120.642 97.5916 120.574 97.9216 120.574 98.2552C120.574 98.5888 120.642 98.9188 120.775 99.2249C120.907 99.531 121.101 99.8067 121.345 100.035C121.588 100.263 121.875 100.439 122.189 100.552C122.503 100.664 122.837 100.712 123.17 100.69H130.53V108C130.57 108.624 130.846 109.21 131.302 109.638C131.758 110.065 132.36 110.303 132.985 110.303C133.61 110.303 134.212 110.065 134.668 109.638C135.124 109.21 135.4 108.624 135.44 108V100.69H142.8C143.133 100.712 143.467 100.664 143.781 100.552C144.095 100.439 144.382 100.263 144.625 100.035C144.869 99.8067 145.063 99.531 145.195 99.2249C145.328 98.9188 145.396 98.5888 145.396 98.2552C145.396 97.9216 145.328 97.5916 145.195 97.2855C145.063 96.9794 144.869 96.7037 144.625 96.4755C144.382 96.2473 144.095 96.0714 143.781 95.9587C143.467 95.846 143.133 95.7989 142.8 95.8202H135.44V88.5202C135.4 87.8962 135.124 87.3108 134.668 86.8829C134.212 86.4551 133.61 86.217 132.985 86.217C132.36 86.217 131.758 86.4551 131.302 86.8829C130.846 87.3108 130.57 87.8962 130.53 88.5202V95.8202ZM98.64 81.2102C100.563 81.226 102.438 81.8106 104.029 82.8904C105.62 83.9702 106.856 85.4969 107.581 87.278C108.306 89.0591 108.488 91.0149 108.103 92.899C107.718 94.783 106.784 96.511 105.419 97.8652C104.054 99.2194 102.318 100.139 100.431 100.509C98.5437 100.878 96.5896 100.68 94.8145 99.9409C93.0394 99.2014 91.5228 97.953 90.4561 96.3531C89.3893 94.7531 88.82 92.8732 88.8199 90.9502C88.8265 89.662 89.0872 88.3878 89.5872 87.2006C90.0871 86.0133 90.8165 84.9364 91.7334 84.0316C92.6503 83.1267 93.7368 82.4118 94.9305 81.9276C96.1243 81.4435 97.4018 81.1997 98.6899 81.2102H98.64Z" fill="black" stroke="black" stroke-miterlimit="10"/>
</g>
<path d="M108.5 212C165.938 212 212.5 165.438 212.5 108C212.5 50.5624 165.938 4 108.5 4C51.0624 4 4.5 50.5624 4.5 108C4.5 165.438 51.0624 212 108.5 212Z" stroke="white" stroke-width="8"/>
<path d="M108.5 212C165.938 212 212.5 165.438 212.5 108C212.5 50.5624 165.938 4 108.5 4C51.0624 4 4.5 50.5624 4.5 108C4.5 165.438 51.0624 212 108.5 212Z" stroke="black" stroke-opacity="0.2" stroke-width="8"/>
</svg>
