<svg width="26" height="26" viewBox="0 0 26 26" fill="none" xmlns="http://www.w3.org/2000/svg">
<path d="M14.285 0.5C15.6913 0.50375 16.405 0.51125 17.0213 0.52875L17.2638 0.5375C17.5438 0.5475 17.82 0.56 18.1538 0.575C19.4838 0.6375 20.3913 0.8475 21.1875 1.15625C22.0125 1.47375 22.7075 1.90375 23.4025 2.5975C24.0384 3.22217 24.5302 3.97809 24.8438 4.8125C25.1525 5.60875 25.3625 6.51625 25.425 7.8475C25.44 8.18 25.4525 8.45625 25.4625 8.7375L25.47 8.98C25.4888 9.595 25.4963 10.3088 25.4988 11.715L25.5 12.6475V14.285C25.5031 15.1968 25.4935 16.1085 25.4713 17.02L25.4638 17.2625C25.4538 17.5437 25.4413 17.82 25.4263 18.1525C25.3638 19.4837 25.1513 20.39 24.8438 21.1875C24.5302 22.0219 24.0384 22.7778 23.4025 23.4025C22.7778 24.0384 22.0219 24.5302 21.1875 24.8438C20.3913 25.1525 19.4838 25.3625 18.1538 25.425L17.2638 25.4625L17.0213 25.47C16.405 25.4875 15.6913 25.4963 14.285 25.4988L13.3525 25.5H11.7163C10.8041 25.5032 9.89191 25.4936 8.98001 25.4712L8.73751 25.4638C8.44077 25.4525 8.1441 25.4396 7.84751 25.425C6.51751 25.3625 5.61001 25.1525 4.81251 24.8438C3.97855 24.5301 3.22306 24.0382 2.59876 23.4025C1.96244 22.778 1.47015 22.022 1.15626 21.1875C0.847509 20.3912 0.637509 19.4837 0.575009 18.1525L0.537509 17.2625L0.531259 17.02C0.508217 16.1085 0.497799 15.1968 0.500009 14.285V11.715C0.496549 10.8033 0.505717 9.8915 0.527509 8.98L0.536259 8.7375C0.546259 8.45625 0.558759 8.18 0.573759 7.8475C0.636259 6.51625 0.846259 5.61 1.15501 4.8125C1.46963 3.97775 1.96279 3.2218 2.60001 2.5975C3.22395 1.96194 3.97899 1.47009 4.81251 1.15625C5.61001 0.8475 6.51626 0.6375 7.84751 0.575C8.18001 0.56 8.45751 0.5475 8.73751 0.5375L8.98001 0.53C9.8915 0.507791 10.8033 0.498207 11.715 0.50125L14.285 0.5ZM13 6.75C11.3424 6.75 9.75269 7.40848 8.58059 8.58058C7.40849 9.75268 6.75001 11.3424 6.75001 13C6.75001 14.6576 7.40849 16.2473 8.58059 17.4194C9.75269 18.5915 11.3424 19.25 13 19.25C14.6576 19.25 16.2473 18.5915 17.4194 17.4194C18.5915 16.2473 19.25 14.6576 19.25 13C19.25 11.3424 18.5915 9.75268 17.4194 8.58058C16.2473 7.40848 14.6576 6.75 13 6.75ZM13 9.25C13.4925 9.24992 13.9801 9.34683 14.4351 9.53521C14.8901 9.72359 15.3036 9.99975 15.6518 10.3479C16.0001 10.6961 16.2764 11.1094 16.4649 11.5644C16.6535 12.0193 16.7506 12.5069 16.7506 12.9994C16.7507 13.4918 16.6538 13.9795 16.4654 14.4345C16.277 14.8895 16.0009 15.3029 15.6527 15.6512C15.3046 15.9995 14.8912 16.2758 14.4363 16.4643C13.9813 16.6528 13.4937 16.7499 13.0013 16.75C12.0067 16.75 11.0529 16.3549 10.3496 15.6517C9.64635 14.9484 9.25126 13.9946 9.25126 13C9.25126 12.0054 9.64635 11.0516 10.3496 10.3483C11.0529 9.64509 12.0067 9.25 13.0013 9.25M19.5638 4.875C19.1494 4.875 18.7519 5.03962 18.4589 5.33265C18.1659 5.62567 18.0013 6.0231 18.0013 6.4375C18.0013 6.8519 18.1659 7.24933 18.4589 7.54235C18.7519 7.83538 19.1494 8 19.5638 8C19.9782 8 20.3756 7.83538 20.6686 7.54235C20.9616 7.24933 21.1263 6.8519 21.1263 6.4375C21.1263 6.0231 20.9616 5.62567 20.6686 5.33265C20.3756 5.03962 19.9782 4.875 19.5638 4.875Z" fill="black"/>
</svg>
