<svg width="25" height="24" viewBox="0 0 25 24" fill="none" xmlns="http://www.w3.org/2000/svg">
<path d="M5.67499 3.24979C5.67466 3.91283 5.41095 4.54858 4.94187 5.01719C4.4728 5.48579 3.83678 5.74887 3.17374 5.74854C2.5107 5.7482 1.87494 5.48449 1.40634 5.01542C0.937731 4.54634 0.674657 3.91033 0.674988 3.24729C0.67532 2.58424 0.93903 1.94849 1.4081 1.47988C1.87718 1.01128 2.5132 0.748204 3.17624 0.748535C3.83928 0.748867 4.47503 1.01258 4.94364 1.48165C5.41225 1.95073 5.67532 2.58674 5.67499 3.24979ZM5.74999 7.59978H0.749988V23.2498H5.74999V7.59978ZM13.65 7.59978H8.67499V23.2498H13.6V15.0373C13.6 10.4623 19.5625 10.0373 19.5625 15.0373V23.2498H24.5V13.3373C24.5 5.62479 15.675 5.91229 13.6 9.69979L13.65 7.59978Z" fill="black"/>
</svg>
