<svg width="18" height="25" viewBox="0 0 18 25" fill="none" xmlns="http://www.w3.org/2000/svg">
<path d="M9 11.875C8.1712 11.875 7.37634 11.5458 6.79029 10.9597C6.20424 10.3737 5.875 9.5788 5.875 8.75C5.875 7.9212 6.20424 7.12634 6.79029 6.54029C7.37634 5.95424 8.1712 5.625 9 5.625C9.8288 5.625 10.6237 5.95424 11.2097 6.54029C11.7958 7.12634 12.125 7.9212 12.125 8.75C12.125 9.16038 12.0442 9.56674 11.8871 9.94589C11.7301 10.325 11.4999 10.6695 11.2097 10.9597C10.9195 11.2499 10.575 11.4801 10.1959 11.6371C9.81674 11.7942 9.41038 11.875 9 11.875ZM9 0C6.67936 0 4.45376 0.921872 2.81282 2.56282C1.17187 4.20376 0.25 6.42936 0.25 8.75C0.25 15.3125 9 25 9 25C9 25 17.75 15.3125 17.75 8.75C17.75 6.42936 16.8281 4.20376 15.1872 2.56282C13.5462 0.921872 11.3206 0 9 0Z" fill="#1BC89D"/>
</svg>
