<svg width="24" height="26" viewBox="0 0 24 26" fill="none" xmlns="http://www.w3.org/2000/svg">
<path d="M17 8.30625V17.375C16.9996 19.0626 16.4738 20.7081 15.4955 22.0832C14.5173 23.4583 13.1351 24.4946 11.541 25.0484C9.94688 25.6021 8.21989 25.6457 6.59985 25.1731C4.9798 24.7006 3.5471 23.7353 2.50067 22.4114C1.45424 21.0875 0.846016 19.4705 0.760454 17.7851C0.674891 16.0998 1.11624 14.4296 2.02321 13.0064C2.93018 11.5833 4.25776 10.4779 5.82162 9.84375C7.38548 9.20957 9.108 9.07806 10.75 9.4675V13.4212C9.89353 13.015 8.92827 12.8979 7.9995 13.0876C7.07073 13.2773 6.2287 13.7635 5.60013 14.4731C4.97156 15.1827 4.59046 16.0772 4.51419 17.0221C4.43792 17.967 4.6706 18.911 5.17721 19.7122C5.68383 20.5135 6.43697 21.1285 7.32329 21.4647C8.2096 21.8009 9.18114 21.8401 10.0917 21.5765C11.0022 21.3129 11.8025 20.7606 12.3721 20.0029C12.9417 19.2452 13.2498 18.3229 13.25 17.375V0.5H17C17 2.1576 17.6585 3.74731 18.8306 4.91942C20.0027 6.09152 21.5924 6.75 23.25 6.75V10.5C20.9774 10.503 18.7721 9.72895 17 8.30625Z" fill="black"/>
</svg>
