<svg width="216" height="216" viewBox="0 0 216 216" fill="none" xmlns="http://www.w3.org/2000/svg">
<path d="M108 212C165.438 212 212 165.438 212 108C212 50.5624 165.438 4 108 4C50.5624 4 4 50.5624 4 108C4 165.438 50.5624 212 108 212Z" fill="white"/>
<mask id="mask0_1050_2038" style="mask-type:luminance" maskUnits="userSpaceOnUse" x="4" y="4" width="208" height="208">
<path d="M108 212C165.438 212 212 165.438 212 108C212 50.5624 165.438 4 108 4C50.5624 4 4 50.5624 4 108C4 165.438 50.5624 212 108 212Z" fill="white"/>
</mask>
<g mask="url(#mask0_1050_2038)">
<path d="M188 28H28V188H188V28Z" fill="white"/>
<path opacity="0.6" d="M130.51 188C162.261 188 188 162.261 188 130.51C188 98.7592 162.261 73.02 130.51 73.02C98.7592 73.02 73.02 98.7592 73.02 130.51C73.02 162.261 98.7592 188 130.51 188Z" fill="#FFC700"/>
<path d="M141.79 125.43C138.783 125.454 135.836 124.584 133.324 122.93C130.812 121.277 128.848 118.914 127.68 116.143C126.513 113.371 126.195 110.315 126.767 107.363C127.339 104.41 128.775 101.694 130.894 99.5594C133.012 97.4244 135.716 95.9667 138.664 95.3712C141.612 94.7757 144.67 95.0692 147.451 96.2145C150.232 97.3598 152.61 99.3053 154.283 101.804C155.956 104.303 156.85 107.243 156.85 110.25C156.863 114.259 155.285 118.11 152.461 120.956C149.637 123.802 145.799 125.412 141.79 125.43ZM153.57 128.34C157.117 126.081 159.93 122.837 161.664 119.006C163.398 115.174 163.978 110.92 163.335 106.764C162.691 102.608 160.85 98.7296 158.038 95.6025C155.226 92.4753 151.563 90.2349 147.499 89.155C143.434 88.0752 139.143 88.2025 135.149 89.5217C131.156 90.8408 127.633 93.2945 125.011 96.583C122.39 99.8715 120.782 103.852 120.386 108.039C119.99 112.226 120.822 116.438 122.78 120.16C119.486 117.354 116.595 114.107 114.19 110.51C113.374 109.272 112.32 108.207 111.09 107.378C109.86 106.55 108.477 105.973 107.023 105.682C105.569 105.391 104.071 105.391 102.616 105.683C101.162 105.974 99.7799 106.551 98.55 107.38C96.0623 109.07 94.3415 111.672 93.7611 114.623C93.1808 117.574 93.7876 120.634 95.45 123.14C101.103 131.587 108.507 138.718 117.16 144.05C116.492 146.395 116.155 148.822 116.16 151.26V158.26C116.136 158.699 116.201 159.138 116.352 159.55C116.503 159.963 116.737 160.34 117.038 160.659C117.34 160.978 117.704 161.233 118.108 161.406C118.511 161.58 118.946 161.67 119.385 161.67C119.824 161.67 120.259 161.58 120.662 161.406C121.066 161.233 121.43 160.978 121.732 160.659C122.033 160.34 122.267 159.963 122.418 159.55C122.569 159.138 122.634 158.699 122.61 158.26V151.26C122.605 148.714 123.104 146.192 124.08 143.84C124.384 143.104 124.408 142.282 124.146 141.53C123.884 140.778 123.355 140.148 122.66 139.76C113.898 134.817 106.418 127.889 100.82 119.53C100.466 118.999 100.22 118.403 100.096 117.777C99.9726 117.151 99.9738 116.506 100.1 115.88C100.22 115.252 100.464 114.655 100.817 114.122C101.171 113.59 101.627 113.134 102.16 112.78C102.683 112.421 103.274 112.172 103.896 112.046C104.518 111.921 105.159 111.922 105.78 112.05C106.404 112.174 106.996 112.42 107.524 112.776C108.051 113.131 108.502 113.588 108.85 114.12C114.241 122.226 121.749 128.7 130.56 132.84C130.824 132.957 131.078 133.094 131.32 133.25C131.762 133.534 132.268 133.703 132.792 133.741C133.316 133.78 133.841 133.687 134.32 133.47C136.7 132.441 139.267 131.914 141.86 131.92C146.959 131.96 151.834 134.016 155.421 137.641C159.007 141.265 161.013 146.161 161 151.26V158.26C160.976 158.699 161.041 159.138 161.192 159.55C161.343 159.963 161.577 160.34 161.878 160.659C162.18 160.978 162.544 161.233 162.947 161.406C163.351 161.58 163.786 161.67 164.225 161.67C164.664 161.67 165.099 161.58 165.502 161.406C165.906 161.233 166.27 160.978 166.572 160.659C166.873 160.34 167.107 159.963 167.258 159.55C167.409 159.138 167.474 158.699 167.45 158.26V151.26C167.451 146.537 166.159 141.905 163.714 137.864C161.269 133.824 157.764 130.53 153.58 128.34" fill="#100F0D"/>
<path d="M93.94 136.74H55.87C55.24 111.54 54.64 74.4001 55.36 64.8501H138.57V80.9101C138.57 81.7641 138.909 82.5831 139.513 83.187C140.117 83.7908 140.936 84.1301 141.79 84.1301C142.644 84.1301 143.463 83.7908 144.067 83.187C144.671 82.5831 145.01 81.7641 145.01 80.9101V61.6001C145.013 60.7425 144.675 59.9189 144.072 59.3097C143.468 58.7005 142.648 58.3554 141.79 58.3501H52.79C51.8934 58.3592 51.0359 58.718 50.4 59.3501C49.25 60.5401 47.51 62.3501 49.57 140.04C49.5857 140.885 49.9315 141.689 50.5334 142.282C51.1353 142.874 51.9454 143.208 52.79 143.21H93.99C94.8519 143.21 95.6786 142.868 96.2881 142.258C96.8976 141.649 97.24 140.822 97.24 139.96C97.24 139.098 96.8976 138.271 96.2881 137.662C95.6786 137.052 94.8519 136.71 93.99 136.71" fill="#100F0D"/>
</g>
<path d="M108 212C165.438 212 212 165.438 212 108C212 50.5624 165.438 4 108 4C50.5624 4 4 50.5624 4 108C4 165.438 50.5624 212 108 212Z" stroke="white" stroke-width="8"/>
<path d="M108 212C165.438 212 212 165.438 212 108C212 50.5624 165.438 4 108 4C50.5624 4 4 50.5624 4 108C4 165.438 50.5624 212 108 212Z" stroke="black" stroke-opacity="0.2" stroke-width="8"/>
</svg>
