<svg width="216" height="216" viewBox="0 0 216 216" fill="none" xmlns="http://www.w3.org/2000/svg">
<path d="M108 212C165.438 212 212 165.438 212 108C212 50.5624 165.438 4 108 4C50.5624 4 4 50.5624 4 108C4 165.438 50.5624 212 108 212Z" fill="white"/>
<mask id="mask0_1050_2055" style="mask-type:luminance" maskUnits="userSpaceOnUse" x="4" y="4" width="208" height="208">
<path d="M108 212C165.438 212 212 165.438 212 108C212 50.5624 165.438 4 108 4C50.5624 4 4 50.5624 4 108C4 165.438 50.5624 212 108 212Z" fill="white"/>
</mask>
<g mask="url(#mask0_1050_2055)">
<path d="M188 28H28V188H188V28Z" fill="white"/>
<path opacity="0.6" d="M130.51 188C162.261 188 188 162.261 188 130.51C188 98.7592 162.261 73.02 130.51 73.02C98.7592 73.02 73.02 98.7592 73.02 130.51C73.02 162.261 98.7592 188 130.51 188Z" fill="#FFC700"/>
<path d="M95.54 114.42H120.4C125.427 114.438 130.242 116.448 133.79 120.01C137.338 123.571 139.33 128.393 139.33 133.42V145.9H76.61V133.44C76.6047 128.409 78.5945 123.582 82.1431 120.017C85.6918 116.451 90.5096 114.438 95.54 114.42Z" stroke="black" stroke-width="6.56" stroke-miterlimit="22.93"/>
<path d="M106.52 106.83C110.159 106.844 113.719 105.778 116.751 103.766C119.783 101.754 122.15 98.8881 123.552 95.5303C124.953 92.1724 125.327 88.4741 124.625 84.9039C123.923 81.3336 122.177 78.0521 119.608 75.475C117.039 72.8979 113.763 71.1412 110.195 70.4274C106.628 69.7137 102.928 70.075 99.5656 71.4656C96.2032 72.8562 93.3292 75.2135 91.3077 78.2388C89.2861 81.2642 88.208 84.8216 88.21 88.4602C88.21 93.3218 90.1371 97.9852 93.5692 101.429C97.0013 104.872 101.658 106.814 106.52 106.83Z" stroke="black" stroke-width="6.56" stroke-miterlimit="22.93"/>
<path d="M135.81 114.11C138.001 112.8 140.507 112.109 143.06 112.11H161.8C165.589 112.131 169.215 113.649 171.888 116.334C174.562 119.019 176.065 122.651 176.07 126.44V135.85H145" stroke="black" stroke-width="6.56" stroke-miterlimit="22.93"/>
<path d="M151.32 106.4C154.062 106.414 156.747 105.613 159.034 104.1C161.32 102.587 163.107 100.428 164.166 97.8989C165.225 95.3694 165.509 92.5824 164.982 89.8912C164.456 87.2 163.142 84.7256 161.208 82.7816C159.274 80.8376 156.806 79.5116 154.118 78.9715C151.429 78.4314 148.641 78.7016 146.106 79.7477C143.571 80.7939 141.404 82.569 139.879 84.8481C138.354 87.1273 137.54 89.8078 137.54 92.55C137.54 96.2112 138.99 99.7234 141.572 102.319C144.154 104.914 147.659 106.382 151.32 106.4Z" stroke="black" stroke-width="6.56" stroke-miterlimit="22.93"/>
<path d="M80.19 114.83C77.9968 113.524 75.4924 112.834 72.94 112.83H54.2C50.4115 112.851 46.785 114.37 44.1117 117.054C41.4384 119.739 39.9352 123.372 39.93 127.16V136.57H71.05" stroke="black" stroke-width="6.56" stroke-miterlimit="22.93"/>
<path d="M64.68 107.13C67.4214 107.14 70.104 106.336 72.3882 104.82C74.6724 103.304 76.4554 101.145 77.5113 98.615C78.5673 96.0851 78.8487 93.2988 78.32 90.6089C77.7912 87.9189 76.4761 85.4465 74.5411 83.5045C72.6062 81.5625 70.1384 80.2385 67.4504 79.7C64.7625 79.1615 61.9751 79.4329 59.4414 80.4796C56.9078 81.5264 54.7417 83.3016 53.2177 85.5803C51.6936 87.859 50.88 90.5387 50.88 93.2801C50.8773 96.9455 52.3288 100.462 54.916 103.059C57.5031 105.655 61.0146 107.12 64.68 107.13Z" stroke="black" stroke-width="6.56" stroke-miterlimit="22.93"/>
</g>
<path d="M108 212C165.438 212 212 165.438 212 108C212 50.5624 165.438 4 108 4C50.5624 4 4 50.5624 4 108C4 165.438 50.5624 212 108 212Z" stroke="white" stroke-width="8"/>
<path d="M108 212C165.438 212 212 165.438 212 108C212 50.5624 165.438 4 108 4C50.5624 4 4 50.5624 4 108C4 165.438 50.5624 212 108 212Z" stroke="black" stroke-opacity="0.2" stroke-width="8"/>
</svg>
