<svg width="26" height="26" viewBox="0 0 26 26" fill="none" xmlns="http://www.w3.org/2000/svg">
<path d="M7.06749 21.1175L7.97249 21.6462C9.49859 22.5365 11.2345 23.0038 13.0012 23C14.9791 23 16.9125 22.4135 18.5569 21.3147C20.2014 20.2159 21.4832 18.6541 22.24 16.8268C22.9969 14.9996 23.1949 12.9889 22.8091 11.0491C22.4232 9.10929 21.4708 7.32746 20.0723 5.92893C18.6738 4.53041 16.892 3.578 14.9521 3.19215C13.0123 2.8063 11.0017 3.00433 9.17441 3.7612C7.34714 4.51808 5.78536 5.79981 4.68654 7.4443C3.58773 9.08879 3.00124 11.0222 3.00124 13C2.99759 14.7673 3.46533 16.5037 4.35624 18.03L4.88374 18.935L4.06749 21.9363L7.06749 21.1175ZM0.50624 25.5L2.19624 19.29C1.08244 17.3812 0.497369 15.21 0.50124 13C0.50124 6.09625 6.09749 0.5 13.0012 0.5C19.905 0.5 25.5012 6.09625 25.5012 13C25.5012 19.9037 19.905 25.5 13.0012 25.5C10.7922 25.5038 8.62197 24.9192 6.71374 23.8063L0.50624 25.5ZM8.48999 7.135C8.65832 7.12333 8.82624 7.12167 8.99374 7.13C9.06124 7.135 9.12874 7.14167 9.19624 7.15C9.39499 7.1725 9.61374 7.29375 9.68749 7.46125C10.06 8.30708 10.4217 9.15708 10.7725 10.0113C10.85 10.2013 10.8037 10.445 10.6562 10.6825C10.5812 10.8038 10.4637 10.9737 10.3275 11.1475C10.1862 11.3287 9.88249 11.6613 9.88249 11.6613C9.88249 11.6613 9.75874 11.8088 9.80624 11.9925C9.82374 12.0625 9.88124 12.1638 9.93374 12.2488L10.0075 12.3675C10.3275 12.9013 10.7575 13.4425 11.2825 13.9525C11.4325 14.0975 11.5787 14.2463 11.7362 14.385C12.3212 14.9012 12.9837 15.3225 13.6987 15.635L13.705 15.6375C13.8112 15.6837 13.865 15.7088 14.02 15.775C14.0975 15.8075 14.1771 15.835 14.2587 15.8575C14.2887 15.8658 14.3192 15.8704 14.35 15.8713C14.4213 15.874 14.4921 15.8592 14.5564 15.8283C14.6207 15.7973 14.6764 15.7512 14.7187 15.6937C15.6225 14.5988 15.7062 14.5275 15.7125 14.5275V14.53C15.7753 14.4712 15.85 14.4266 15.9315 14.3992C16.013 14.3718 16.0995 14.3623 16.185 14.3713C16.2617 14.3746 16.3354 14.3912 16.4062 14.4213C17.07 14.725 18.1562 15.1987 18.1562 15.1987L18.8837 15.525C19.0062 15.5838 19.1175 15.7225 19.1212 15.8562C19.1262 15.94 19.1337 16.075 19.105 16.3225C19.065 16.6462 18.9675 17.035 18.87 17.2388C18.8024 17.3773 18.7139 17.5047 18.6075 17.6162C18.4813 17.7486 18.3432 17.8691 18.195 17.9762C18.0917 18.0529 18.0396 18.0904 18.0387 18.0887C17.8833 18.1874 17.7235 18.2792 17.56 18.3638C17.238 18.5343 16.8826 18.6324 16.5187 18.6512C16.2875 18.6637 16.0562 18.6812 15.8237 18.6688C15.8137 18.6688 15.1137 18.56 15.1137 18.56C13.3366 18.0925 11.693 17.2168 10.3137 16.0025C10.0312 15.7538 9.76874 15.4862 9.50124 15.22C8.39124 14.1138 7.54999 12.92 7.03874 11.7925C6.77937 11.239 6.63885 10.6374 6.62624 10.0263C6.62154 9.26718 6.87006 8.52822 7.33249 7.92625C7.42374 7.80875 7.50999 7.68625 7.65874 7.545C7.81624 7.395 7.91749 7.315 8.02624 7.26C8.17129 7.18875 8.32878 7.1463 8.48999 7.135Z" fill="black"/>
</svg>
