<svg width="26" height="20" viewBox="0 0 26 20" fill="none" xmlns="http://www.w3.org/2000/svg">
<path d="M13.305 0C13.9725 0.00375 15.6425 0.0199999 17.4175 0.0912499L18.0475 0.11875C19.8337 0.2025 21.6187 0.3475 22.505 0.59375C23.6862 0.92625 24.6137 1.89375 24.9275 3.12125C25.4275 5.07125 25.49 8.87375 25.4975 9.795L25.4987 9.985V10.2025C25.49 11.1237 25.4275 14.9275 24.9275 16.8762C24.61 18.1075 23.6812 19.0763 22.505 19.4038C21.6187 19.65 19.8337 19.795 18.0475 19.8787L17.4175 19.9075C15.6425 19.9775 13.9725 19.995 13.305 19.9975L13.0112 19.9988H12.6925C11.28 19.99 5.3725 19.9263 3.4925 19.4038C2.3125 19.0713 1.38375 18.1038 1.07 16.8762C0.57 14.9262 0.5075 11.1237 0.5 10.2025V9.795C0.5075 8.87375 0.57 5.07 1.07 3.12125C1.3875 1.89 2.31625 0.92125 3.49375 0.595C5.3725 0.0712498 11.2812 0.0075 12.6937 0H13.305ZM10.4987 5.625V14.375L17.9987 10L10.4987 5.625Z" fill="black"/>
</svg>
